<svg width="29" height="23" viewBox="0 0 29 23" fill="none" xmlns="http://www.w3.org/2000/svg">
<path d="M15.1279 9.74707V13.6436C15.1279 15.1768 14.9473 16.5098 14.5859 17.6426C14.2344 18.7754 13.7266 19.7129 13.0625 20.4551C12.4082 21.1973 11.627 21.749 10.7188 22.1104C9.81055 22.4717 8.80957 22.6523 7.71582 22.6523C6.83691 22.6523 6.0166 22.54 5.25488 22.3154C4.49316 22.0811 3.80469 21.7295 3.18945 21.2607C2.58398 20.7822 2.06152 20.1865 1.62207 19.4736C1.18262 18.7607 0.845703 17.9209 0.611328 16.9541C0.376953 15.9775 0.259766 14.874 0.259766 13.6436V9.74707C0.259766 8.2041 0.435547 6.87109 0.787109 5.74805C1.14844 4.61523 1.66113 3.67773 2.3252 2.93555C2.98926 2.19336 3.77539 1.6416 4.68359 1.28027C5.5918 0.918945 6.59277 0.738281 7.68652 0.738281C8.56543 0.738281 9.38086 0.855469 10.1328 1.08984C10.8945 1.31445 11.583 1.66602 12.1982 2.14453C12.8135 2.61328 13.3359 3.2041 13.7656 3.91699C14.2051 4.62988 14.542 5.47461 14.7764 6.45117C15.0107 7.41797 15.1279 8.5166 15.1279 9.74707ZM10.1914 14.2441V9.11719C10.1914 8.43359 10.1523 7.83789 10.0742 7.33008C10.0059 6.82227 9.89844 6.39258 9.75195 6.04102C9.61523 5.68945 9.44434 5.40625 9.23926 5.19141C9.03418 4.9668 8.7998 4.80566 8.53613 4.70801C8.28223 4.60059 7.99902 4.54688 7.68652 4.54688C7.2959 4.54688 6.94434 4.62988 6.63184 4.7959C6.3291 4.95215 6.07031 5.20605 5.85547 5.55762C5.64062 5.90918 5.47461 6.37793 5.35742 6.96387C5.25 7.5498 5.19629 8.26758 5.19629 9.11719V14.2441C5.19629 14.9375 5.23047 15.543 5.29883 16.0605C5.37695 16.5684 5.48438 17.0029 5.62109 17.3643C5.76758 17.7158 5.94336 18.0039 6.14844 18.2285C6.35352 18.4434 6.58789 18.5996 6.85156 18.6973C7.11523 18.7949 7.40332 18.8438 7.71582 18.8438C8.09668 18.8438 8.43848 18.7656 8.74121 18.6094C9.04395 18.4531 9.30273 18.1992 9.51758 17.8477C9.74219 17.4863 9.9082 17.0127 10.0156 16.4268C10.1328 15.8311 10.1914 15.1035 10.1914 14.2441ZM28.6484 1.03125V22.3594H23.7119V6.59766L18.8486 8.01855V4.26855L28.1943 1.03125H28.6484Z" fill="#333333"/>
</svg>
