<svg width="17" height="18" viewBox="0 0 17 18" fill="none" xmlns="http://www.w3.org/2000/svg">
<rect width="17" height="17" transform="translate(0 0.0996094)" fill="white"/>
<path d="M9.58063 7.64094C9.58063 7.24685 9.47824 6.93851 9.27346 6.71592C9.06869 6.49333 8.7864 6.38204 8.42661 6.38204C8.18547 6.38204 7.94816 6.43769 7.71468 6.54898C7.48119 6.66028 7.27068 6.81444 7.08312 7.01149C6.89557 7.20853 6.74343 7.45849 6.62668 7.76135C6.50994 8.06422 6.45157 8.39262 6.45157 8.74657C6.45157 9.15526 6.55396 9.47089 6.75874 9.69348C6.96351 9.91607 7.25154 10.0274 7.62281 10.0274C7.99026 10.0274 8.32709 9.90603 8.6333 9.66338C8.93951 9.42072 9.17394 9.11786 9.33662 8.75478C9.49929 8.39171 9.58063 8.02043 9.58063 7.64094ZM12.8188 8.30322C12.8188 8.70826 12.748 9.06768 12.6063 9.38149C12.4647 9.69531 12.2762 9.94161 12.0408 10.1204C11.8054 10.2992 11.5537 10.4351 11.2858 10.5282C11.0179 10.6212 10.7404 10.6714 10.4533 10.6787C10.4304 10.6787 10.4007 10.6796 10.3643 10.6814C10.328 10.6833 10.2964 10.6842 10.2696 10.6842C9.90597 10.6842 9.63421 10.5875 9.45432 10.3941C9.34714 10.2737 9.28399 10.1222 9.26485 9.93979C9.06582 10.1806 8.81415 10.3813 8.50986 10.5419C8.20556 10.7024 7.87352 10.7827 7.51373 10.7827C6.89749 10.7827 6.41999 10.6085 6.08125 10.26C5.74251 9.91151 5.57314 9.41981 5.57314 8.78489C5.57314 8.212 5.69945 7.6829 5.95207 7.19759C6.20469 6.71227 6.54726 6.32822 6.97978 6.04542C7.4123 5.76263 7.88309 5.62123 8.39216 5.62123C8.72516 5.62123 9.0218 5.686 9.28207 5.81554C9.54235 5.94508 9.74521 6.12661 9.89066 6.36015L9.90214 6.25615L9.9653 5.94964C9.96913 5.92774 9.97965 5.90585 9.99688 5.88396C10.0141 5.86206 10.0323 5.85112 10.0514 5.85112H10.7289C10.748 5.85112 10.7729 5.87119 10.8035 5.91132C10.8227 5.92957 10.8284 5.95876 10.8208 5.9989L10.1318 9.3596C10.1127 9.44718 10.1031 9.53475 10.1031 9.62233C10.1031 9.76464 10.127 9.85951 10.1749 9.90695C10.2227 9.95438 10.3079 9.9781 10.4304 9.9781C10.5375 9.97445 10.6466 9.96442 10.7576 9.948C10.8686 9.93158 11.0083 9.88779 11.1767 9.81663C11.3451 9.74548 11.4925 9.65425 11.6188 9.54296C11.7451 9.43167 11.8542 9.26838 11.9461 9.05309C12.0379 8.8378 12.0839 8.58784 12.0839 8.30322C12.0839 7.23772 11.7509 6.38752 11.0849 5.75259C10.4189 5.11767 9.52704 4.80021 8.40938 4.80021C7.9118 4.80021 7.43622 4.89326 6.98265 5.07936C6.52908 5.26546 6.13867 5.5145 5.81141 5.82649C5.48415 6.13847 5.22292 6.51067 5.02771 6.94307C4.8325 7.37547 4.7349 7.82886 4.7349 8.30322C4.7349 8.77759 4.8325 9.23097 5.02771 9.66338C5.22292 10.0958 5.48415 10.468 5.81141 10.78C6.13867 11.0919 6.52908 11.341 6.98265 11.5271C7.43622 11.7132 7.9118 11.8062 8.40938 11.8062C9.28207 11.8062 10.0572 11.5435 10.7346 11.0181C10.7767 10.9852 10.8227 10.9706 10.8724 10.9743C10.9222 10.9779 10.9624 10.9998 10.993 11.04L11.2284 11.3081C11.259 11.3519 11.2724 11.3957 11.2686 11.4395C11.2609 11.4869 11.238 11.5271 11.1997 11.5599C10.8093 11.8628 10.3739 12.0963 9.89353 12.2605C9.41317 12.4247 8.91845 12.5068 8.40938 12.5068C7.81228 12.5068 7.24197 12.3955 6.69845 12.173C6.15493 11.9504 5.68605 11.6512 5.29181 11.2753C4.89757 10.8995 4.58371 10.4525 4.35022 9.93431C4.11674 9.41616 4 8.87246 4 8.30322C4 7.73398 4.11674 7.19029 4.35022 6.67213C4.58371 6.15398 4.89757 5.70698 5.29181 5.33114C5.68605 4.95529 6.15493 4.65608 6.69845 4.43349C7.24197 4.21091 7.81228 4.09961 8.40938 4.09961C9.72607 4.09961 10.7901 4.4864 11.6016 5.25998C12.413 6.03357 12.8188 7.04798 12.8188 8.30322Z" fill="#2A2A2A"/>
</svg>
