<svg width="17" height="18" viewBox="0 0 17 18" fill="none" xmlns="http://www.w3.org/2000/svg">
<rect width="17" height="17" transform="translate(0 0.0996094)" fill="white"/>
<path d="M12.793 6.53298C12.8713 6.76651 12.616 7.30291 12.0271 8.14217C11.9454 8.25894 11.8348 8.41402 11.6952 8.60742C11.4297 8.97231 11.2766 9.21132 11.2357 9.32444C11.1778 9.47405 11.2017 9.62183 11.3072 9.76779C11.3651 9.84442 11.5029 9.99403 11.7208 10.2166H11.7259L11.731 10.2221L11.7361 10.2276L11.7463 10.2385C12.2262 10.7165 12.5513 11.1197 12.7215 11.4481C12.7317 11.4664 12.7428 11.4892 12.7547 11.5166C12.7666 11.5439 12.7785 11.5923 12.7904 11.6616C12.8023 11.7309 12.8015 11.793 12.7879 11.8477C12.7743 11.9024 12.7317 11.9526 12.6602 11.9982C12.5888 12.0438 12.4883 12.0666 12.359 12.0666L11.0519 12.0885C10.9702 12.1068 10.8749 12.0977 10.766 12.0612C10.657 12.0247 10.5685 11.9845 10.5005 11.9408L10.3984 11.8751C10.2962 11.7984 10.1771 11.6817 10.0409 11.5248C9.90479 11.3679 9.78821 11.2265 9.69119 11.1006C9.59418 10.9747 9.49036 10.8689 9.37974 10.7831C9.26911 10.6974 9.17295 10.6691 9.09126 10.6983C9.08105 10.7019 9.06743 10.7083 9.05041 10.7174C9.03339 10.7266 9.00446 10.753 8.96361 10.7968C8.92277 10.8406 8.88617 10.8944 8.85384 10.9583C8.8215 11.0221 8.79257 11.117 8.76704 11.2429C8.74151 11.3688 8.73045 11.5102 8.73385 11.6671C8.73385 11.7218 8.72789 11.772 8.71598 11.8176C8.70407 11.8632 8.6913 11.897 8.67769 11.9189L8.65726 11.9462C8.59599 12.0156 8.50579 12.0557 8.38665 12.0666H7.79948C7.55781 12.0812 7.30932 12.0511 7.05403 11.9763C6.79874 11.9015 6.57493 11.8048 6.38261 11.6862C6.19029 11.5676 6.01499 11.4472 5.85671 11.325C5.69843 11.2027 5.57845 11.0978 5.49675 11.0103L5.36911 10.8789C5.33507 10.8424 5.28826 10.7877 5.2287 10.7147C5.16913 10.6417 5.04744 10.4757 4.86363 10.2166C4.67982 9.95754 4.49941 9.68204 4.32241 9.39012C4.14541 9.0982 3.93692 8.71324 3.69695 8.23522C3.45697 7.75721 3.23487 7.26095 3.03063 6.74644C3.01021 6.68806 3 6.6388 3 6.59866C3 6.55852 3.00511 6.52933 3.01532 6.51108L3.03574 6.47824C3.0868 6.40891 3.18381 6.37425 3.32677 6.37425L4.72577 6.3633C4.76662 6.3706 4.80576 6.38246 4.84321 6.39888C4.88065 6.4153 4.90788 6.43081 4.9249 6.4454L4.95043 6.46182C5.00489 6.50196 5.04574 6.56035 5.07297 6.63697C5.14105 6.81942 5.21934 7.00826 5.30784 7.20348C5.39634 7.3987 5.46612 7.54739 5.51718 7.64956L5.59887 7.80829C5.69758 8.02723 5.79289 8.21698 5.8848 8.37753C5.9767 8.53809 6.05924 8.66306 6.13243 8.75246C6.20561 8.84186 6.27624 8.91211 6.34432 8.96319C6.4124 9.01428 6.47026 9.03982 6.51792 9.03982C6.56557 9.03982 6.61153 9.0307 6.65578 9.01245C6.66258 9.0088 6.67109 8.99968 6.68131 8.98509C6.69152 8.97049 6.71194 8.93035 6.74258 8.86467C6.77321 8.79899 6.79619 8.71324 6.8115 8.60742C6.82682 8.5016 6.84299 8.35381 6.86001 8.16407C6.87703 7.97432 6.87703 7.74626 6.86001 7.47989C6.8532 7.33393 6.83788 7.20074 6.81406 7.08032C6.79023 6.95991 6.7664 6.87598 6.74258 6.82854L6.71194 6.76286C6.62684 6.6388 6.48218 6.56035 6.27794 6.5275C6.23369 6.52021 6.2422 6.47642 6.30347 6.39614C6.36134 6.32681 6.42601 6.27208 6.4975 6.23194C6.6779 6.13707 7.08467 6.09328 7.71779 6.10058C7.99691 6.10422 8.22667 6.12794 8.40708 6.17173C8.47515 6.18998 8.53217 6.21461 8.57812 6.24562C8.62407 6.27664 8.65897 6.32043 8.68279 6.37699C8.70662 6.43354 8.72449 6.49193 8.7364 6.55214C8.74832 6.61234 8.75427 6.69536 8.75427 6.80118C8.75427 6.907 8.75257 7.00734 8.74917 7.10222C8.74576 7.19709 8.74151 7.32572 8.7364 7.4881C8.7313 7.65048 8.72874 7.80099 8.72874 7.93966C8.72874 7.97979 8.72704 8.05642 8.72364 8.16954C8.72023 8.28266 8.71938 8.37023 8.72109 8.43227C8.72279 8.4943 8.72874 8.56819 8.73896 8.65394C8.74917 8.73969 8.76874 8.81085 8.79767 8.86741C8.82661 8.92397 8.8649 8.96867 8.91255 9.00151C8.93979 9.0088 8.96872 9.0161 8.99935 9.0234C9.02999 9.0307 9.07424 9.01063 9.13211 8.96319C9.18997 8.91576 9.25465 8.85281 9.32613 8.77436C9.39761 8.6959 9.48611 8.57366 9.59163 8.40764C9.69715 8.24161 9.81288 8.04548 9.93883 7.81924C10.1431 7.43975 10.3252 7.02924 10.4852 6.58771C10.4988 6.55122 10.5158 6.5193 10.5362 6.49193C10.5566 6.46456 10.5754 6.4454 10.5924 6.43446L10.6128 6.41804C10.6196 6.41439 10.6281 6.40983 10.6383 6.40435C10.6485 6.39888 10.6707 6.39341 10.7047 6.38793C10.7387 6.38246 10.7728 6.38155 10.8068 6.3852L12.2773 6.37425C12.4101 6.356 12.519 6.36056 12.6041 6.38793C12.6892 6.4153 12.7419 6.4454 12.7624 6.47824L12.793 6.53298Z" fill="#2A2A2A"/>
</svg>
