<svg width="17" height="18" viewBox="0 0 17 18" fill="none" xmlns="http://www.w3.org/2000/svg">
<rect width="17" height="17" transform="translate(0 0.0996094)" fill="white"/>
<path d="M9.81766 9.90875V11.0636C9.81766 11.3081 9.75131 11.4304 9.61863 11.4304C9.54037 11.4304 9.46382 11.3902 9.38897 11.31V9.66245C9.46382 9.58217 9.54037 9.54203 9.61863 9.54203C9.75131 9.54203 9.81766 9.66427 9.81766 9.90875ZM11.5426 9.91422V10.166H11.0833V9.91422C11.0833 9.66609 11.1599 9.54203 11.313 9.54203C11.4661 9.54203 11.5426 9.66609 11.5426 9.91422ZM6.61269 8.72101H7.15876V8.20651H5.56648V8.72101H6.10235V11.8354H6.61269V8.72101ZM8.08249 11.8354H8.53669V9.13152H8.08249V11.2005C7.98042 11.3537 7.88345 11.4304 7.79159 11.4304C7.73035 11.4304 7.69462 11.3921 7.68442 11.3154C7.68101 11.3045 7.67931 11.2406 7.67931 11.1239V9.13152H7.22511V11.2716C7.22511 11.4504 7.23871 11.5836 7.26593 11.6712C7.30676 11.8062 7.40543 11.8737 7.56193 11.8737C7.72524 11.8737 7.89876 11.7624 8.08249 11.5398V11.8354ZM10.2719 11.0253V9.94706C10.2719 9.68069 10.2566 9.50007 10.2259 9.40519C10.1681 9.20085 10.0473 9.09868 9.86359 9.09868C9.69348 9.09868 9.53527 9.1972 9.38897 9.39425V8.20651H8.93476V11.8354H9.38897V11.5727C9.54207 11.7734 9.70028 11.8737 9.86359 11.8737C10.0473 11.8737 10.1681 11.7734 10.2259 11.5727C10.2566 11.4742 10.2719 11.2917 10.2719 11.0253ZM11.9968 10.9706V10.8994H11.5324C11.5324 11.0855 11.529 11.1968 11.5222 11.2333C11.4984 11.3647 11.4304 11.4304 11.3181 11.4304C11.1616 11.4304 11.0833 11.3045 11.0833 11.0527V10.5765H11.9968V10.0127C11.9968 9.72448 11.9509 9.51284 11.859 9.37783C11.7264 9.19173 11.546 9.09868 11.3181 9.09868C11.0867 9.09868 10.9047 9.19173 10.772 9.37783C10.6767 9.51284 10.6291 9.72448 10.6291 10.0127V10.9597C10.6291 11.2479 10.6784 11.4596 10.7771 11.5946C10.9098 11.7807 11.0935 11.8737 11.3283 11.8737C11.5732 11.8737 11.757 11.777 11.8795 11.5836C11.9407 11.4851 11.9764 11.3866 11.9866 11.2881C11.9934 11.2552 11.9968 11.1494 11.9968 10.9706ZM8.89393 5.97334V4.82391C8.89393 4.57213 8.82079 4.44624 8.67449 4.44624C8.52819 4.44624 8.45504 4.57213 8.45504 4.82391V5.97334C8.45504 6.22877 8.52819 6.35648 8.67449 6.35648C8.82079 6.35648 8.89393 6.22877 8.89393 5.97334ZM12.5633 10.0839C12.5633 10.9378 12.5191 11.5763 12.4306 11.9996C12.383 12.2149 12.2843 12.3955 12.1346 12.5415C11.9849 12.6874 11.8114 12.7714 11.6141 12.7933C10.9881 12.8699 10.0439 12.9082 8.78166 12.9082C7.5194 12.9082 6.57527 12.8699 5.94924 12.7933C5.75191 12.7714 5.57754 12.6874 5.42614 12.5415C5.27474 12.3955 5.17692 12.2149 5.13269 11.9996C5.04423 11.5909 5 10.9524 5 10.0839C5 9.23004 5.04423 8.59147 5.13269 8.16819C5.18032 7.9529 5.27899 7.77228 5.42869 7.62632C5.57839 7.48036 5.75361 7.39461 5.95435 7.36907C6.57697 7.29609 7.5194 7.2596 8.78166 7.2596C10.0439 7.2596 10.9881 7.29609 11.6141 7.36907C11.8114 7.39461 11.9858 7.48036 12.1372 7.62632C12.2886 7.77228 12.3864 7.9529 12.4306 8.16819C12.5191 8.57688 12.5633 9.21545 12.5633 10.0839ZM7.47007 3.09977H7.99062L7.37311 5.28368V6.76699H6.86276V5.28368C6.81513 5.01366 6.71136 4.62687 6.55145 4.12331C6.42556 3.74747 6.31499 3.40629 6.21973 3.09977H6.76069L7.12304 4.53929L7.47007 3.09977ZM9.35835 4.92243V5.88029C9.35835 6.17586 9.31072 6.39114 9.21545 6.52616C9.08957 6.71225 8.90925 6.8053 8.67449 6.8053C8.44653 6.8053 8.26791 6.71225 8.13862 6.52616C8.04336 6.3875 7.99573 6.17221 7.99573 5.88029V4.92243C7.99573 4.63052 8.04336 4.41705 8.13862 4.28204C8.26791 4.09594 8.44653 4.00289 8.67449 4.00289C8.90925 4.00289 9.08957 4.09594 9.21545 4.28204C9.31072 4.41705 9.35835 4.63052 9.35835 4.92243ZM11.068 4.03574V6.76699H10.6036V6.46595C10.4233 6.69218 10.2481 6.8053 10.0779 6.8053C9.92143 6.8053 9.82106 6.7378 9.77683 6.60278C9.74961 6.51521 9.736 6.37837 9.736 6.19228V4.03574H10.2004V6.04449C10.2004 6.16491 10.2021 6.22877 10.2055 6.23606C10.2157 6.31634 10.2515 6.35648 10.3127 6.35648C10.4046 6.35648 10.5015 6.27803 10.6036 6.12112V4.03574H11.068Z" fill="#2A2A2A"/>
</svg>
