<svg width="17" height="18" viewBox="0 0 17 18" fill="none" xmlns="http://www.w3.org/2000/svg">
<rect width="17" height="17" transform="translate(0 0.0996094)" fill="white"/>
<path d="M9.76152 9.02869C9.76152 9.02869 9.79469 8.98445 9.86104 8.89596C9.92738 8.80747 9.98267 8.76323 10.0269 8.76323C10.0711 8.76323 10.237 8.84351 10.5245 9.00406C10.812 9.16462 10.9642 9.26131 10.9812 9.29416C10.9881 9.3124 10.9915 9.33977 10.9915 9.37626C10.9915 9.49667 10.9625 9.63533 10.9047 9.79224C10.8503 9.93455 10.7295 10.0541 10.5424 10.1508C10.3552 10.2474 10.1817 10.2958 10.0218 10.2958C9.82787 10.2958 9.50465 10.1827 9.05214 9.95644C8.71872 9.79224 8.42952 9.57695 8.18456 9.31058C7.93959 9.0442 7.68782 8.70667 7.42924 8.29799C7.18428 7.90755 7.0635 7.5536 7.0669 7.23614V7.19235C7.07711 6.86029 7.20299 6.57202 7.44455 6.32754C7.52621 6.24727 7.61467 6.20713 7.70993 6.20713C7.73035 6.20713 7.76097 6.20986 7.8018 6.21534C7.84262 6.22081 7.87495 6.22355 7.89876 6.22355C7.96341 6.22355 8.00849 6.23541 8.034 6.25913C8.05952 6.28284 8.08589 6.33302 8.11311 6.40965C8.14033 6.48262 8.19646 6.64318 8.28152 6.89131C8.36658 7.13944 8.40911 7.27628 8.40911 7.30182C8.40911 7.37845 8.35042 7.48335 8.23304 7.61654C8.11566 7.74973 8.05697 7.83457 8.05697 7.87106C8.05697 7.8966 8.06547 7.92397 8.08249 7.95316C8.19816 8.21953 8.37168 8.46949 8.60304 8.70302C8.79357 8.89642 9.05044 9.08069 9.37366 9.25584C9.41449 9.28138 9.45191 9.29416 9.48594 9.29416C9.53697 9.29416 9.62883 9.20567 9.76152 9.02869ZM8.9909 11.6642C9.42299 11.6642 9.83722 11.5729 10.2336 11.3905C10.63 11.208 10.971 10.9636 11.2568 10.657C11.5426 10.3505 11.7706 9.98472 11.9407 9.55962C12.1108 9.13451 12.1959 8.69025 12.1959 8.22683C12.1959 7.76341 12.1108 7.31915 11.9407 6.89405C11.7706 6.46894 11.5426 6.10313 11.2568 5.79662C10.971 5.49011 10.63 5.24562 10.2336 5.06318C9.83722 4.88073 9.42299 4.7895 8.9909 4.7895C8.55881 4.7895 8.14458 4.88073 7.74821 5.06318C7.35184 5.24562 7.01076 5.49011 6.72497 5.79662C6.43917 6.10313 6.21122 6.46894 6.0411 6.89405C5.87099 7.31915 5.78593 7.76341 5.78593 8.22683C5.78593 8.96757 5.99007 9.63898 6.39835 10.2411L5.99517 11.5164L7.23021 11.0949C7.76777 11.4744 8.35467 11.6642 8.9909 11.6642ZM7.49814 4.42826C7.49814 4.42826 7.6168 4.37352 7.85411 4.26405C8.09142 4.15458 8.47035 4.09985 8.9909 4.09985C9.51145 4.09985 10.009 4.20932 10.4837 4.42826C10.9583 4.64719 11.3674 4.94094 11.711 5.30948C12.0547 5.67803 12.3286 6.11682 12.5327 6.62585C12.7368 7.13488 12.8389 7.66854 12.8389 8.22683C12.8389 8.78512 12.7368 9.31879 12.5327 9.82782C12.3286 10.3368 12.0547 10.7756 11.711 11.1442C11.3674 11.5127 10.9583 11.8065 10.4837 12.0254C10.009 12.2443 9.51145 12.3538 8.9909 12.3538C8.32745 12.3538 7.70653 12.1823 7.12814 11.8393L5 12.5728L5.69407 10.356C5.32662 9.70649 5.1429 8.99676 5.1429 8.22683C5.1429 7.66854 5.24497 7.13488 5.4491 6.62585C5.65324 6.11682 5.92713 5.67803 6.27076 5.30948C6.61439 4.94094 7.02352 4.64719 7.49814 4.42826Z" fill="#2A2A2A"/>
</svg>
