<svg width="36" height="37" viewBox="0 0 36 37" fill="none" xmlns="http://www.w3.org/2000/svg">
<path d="M9.80613 28.8631C9.80613 28.8631 9.86276 28.8064 9.97602 28.6932C10.0893 28.5799 10.1459 28.3683 10.1459 28.0583C10.1459 27.7484 10.0326 27.4801 9.80613 27.2536C9.57962 27.0271 9.31138 26.9139 9.00141 26.9139C8.69144 26.9139 8.4232 27.0271 8.19669 27.2536C7.97017 27.4801 7.85692 27.7484 7.85692 28.0583C7.85692 28.3683 7.97017 28.6366 8.19669 28.8631C8.4232 29.0896 8.69144 29.2028 9.00141 29.2028C9.31138 29.2028 9.57962 29.0896 9.80613 28.8631ZM21.6624 20.5476L9.46636 32.7436C9.02525 33.1847 8.48877 33.4053 7.85692 33.4053C7.23698 33.4053 6.69454 33.1847 6.22959 32.7436L4.33402 30.8123C3.88099 30.3831 3.65448 29.8466 3.65448 29.2028C3.65448 28.571 3.88099 28.0285 4.33402 27.5755L16.5121 15.3974C16.9771 16.5657 17.6596 17.5999 18.5597 18.5C19.4598 19.4001 20.494 20.0827 21.6624 20.5476ZM33 12.7686C33 13.2336 32.8629 13.8654 32.5887 14.6642C32.0284 16.2617 31.0478 17.5582 29.647 18.5537C28.2462 19.5492 26.7053 20.0469 25.0243 20.0469C22.8188 20.0469 20.9322 19.263 19.3644 17.6953C17.7967 16.1276 17.0129 14.241 17.0129 12.0354C17.0129 9.8299 17.7967 7.94328 19.3644 6.37556C20.9322 4.80784 22.8188 4.02398 25.0243 4.02398C25.7158 4.02398 26.44 4.12234 27.1971 4.31905C27.9541 4.51576 28.5949 4.79294 29.1195 5.15059C29.3102 5.28173 29.4056 5.44864 29.4056 5.65131C29.4056 5.85398 29.3102 6.02089 29.1195 6.15203L23.8798 9.1742V13.1799L27.3312 15.0934C27.3908 15.0576 27.8617 14.7685 28.7439 14.2261C29.6261 13.6836 30.4338 13.2008 31.167 12.7776C31.9002 12.3543 32.3205 12.1427 32.4278 12.1427C32.6066 12.1427 32.7467 12.2023 32.848 12.3216C32.9493 12.4408 33 12.5898 33 12.7686Z" fill="#333333"/>
</svg>
