<svg width="23" height="23" viewBox="0 0 23 23" fill="none" xmlns="http://www.w3.org/2000/svg">
<g clip-path="url(#clip0_187_10)">
<path d="M15.3599 11.9487C15.6057 11.8094 15.7286 11.5882 15.7286 11.2851C15.7286 10.982 15.6057 10.7608 15.3599 10.6216L9.0685 6.68944C8.81455 6.5256 8.54832 6.51741 8.26979 6.66486C7.99945 6.81232 7.86429 7.04169 7.86429 7.35299V15.2173C7.86429 15.5286 7.99945 15.7579 8.26979 15.9054C8.40086 15.9709 8.52783 16.0037 8.65071 16.0037C8.81455 16.0037 8.95382 15.9627 9.0685 15.8808L15.3599 11.9487ZM22.0077 9.44194C22.0077 9.44194 22.0098 9.55253 22.0139 9.77371C22.018 9.99489 22.02 10.4987 22.02 11.2851C22.02 12.0716 22.0159 12.686 22.0077 13.1283C21.9995 13.5707 21.9647 14.1298 21.9033 14.8056C21.8418 15.4815 21.7497 16.0856 21.6268 16.6181C21.4957 17.2161 21.2131 17.7199 20.7789 18.1295C20.3447 18.5391 19.8368 18.7767 19.2552 18.8422C17.4366 19.047 14.6882 19.1494 11.01 19.1494C7.33181 19.1494 4.5834 19.047 2.76479 18.8422C2.18316 18.7767 1.67321 18.5391 1.23494 18.1295C0.796669 17.7199 0.511998 17.2161 0.380926 16.6181C0.266239 16.0856 0.178175 15.4815 0.116735 14.8056C0.0552958 14.1298 0.0204799 13.5707 0.0122879 13.1283C0.00409598 12.686 0 12.0716 0 11.2851C0 10.4987 0.00409598 9.8843 0.0122879 9.44194C0.0204799 8.99957 0.0552958 8.44047 0.116735 7.76463C0.178175 7.08879 0.270335 6.48464 0.393214 5.95216C0.524286 5.35415 0.806908 4.85034 1.24108 4.44074C1.67526 4.03114 2.18316 3.79358 2.76479 3.72804C4.5834 3.52324 7.33181 3.42084 11.01 3.42084C14.6882 3.42084 17.4366 3.52324 19.2552 3.72804C19.8368 3.79358 20.3468 4.03114 20.7851 4.44074C21.2233 4.85034 21.508 5.35415 21.6391 5.95216C21.7538 6.48464 21.8418 7.08879 21.9033 7.76463C21.9647 8.44047 21.9995 8.99957 22.0077 9.44194Z" fill="#F1F1F1"/>
</g>
<defs>
<clipPath id="clip0_187_10">
<rect width="22.02" height="23" fill="white" transform="matrix(1 0 0 -1 0 23)"/>
</clipPath>
</defs>
</svg>
