<svg width="36" height="37" viewBox="0 0 36 37" fill="none" xmlns="http://www.w3.org/2000/svg">
<path d="M14.9905 21.4567C14.9905 21.4567 15.2158 21.2314 15.6665 20.7808C16.1171 20.3302 16.3424 19.468 16.3424 18.1942C16.3424 16.9204 15.8918 15.8329 14.9905 14.9317C14.0893 14.0304 13.0018 13.5798 11.728 13.5798C10.4542 13.5798 9.36673 14.0304 8.46548 14.9317C7.56423 15.8329 7.1136 16.9204 7.1136 18.1942C7.1136 19.468 7.56423 20.5555 8.46548 21.4567C9.36673 22.358 10.4542 22.8086 11.728 22.8086C13.0018 22.8086 14.0893 22.358 14.9905 21.4567ZM30.1856 27.423C30.1856 26.7981 29.9573 26.2574 29.5007 25.8007C29.044 25.3441 28.5033 25.1158 27.8784 25.1158C27.2535 25.1158 26.7128 25.3441 26.2562 25.8007C25.7995 26.2574 25.5712 26.7981 25.5712 27.423C25.5712 28.0599 25.7965 28.6036 26.2471 29.0543C26.6978 29.5049 27.2415 29.7302 27.8784 29.7302C28.5153 29.7302 29.059 29.5049 29.5097 29.0543C29.9603 28.6036 30.1856 28.0599 30.1856 27.423ZM30.1856 8.96539C30.1856 8.34052 29.9573 7.79977 29.5007 7.34314C29.044 6.88651 28.5033 6.65819 27.8784 6.65819C27.2535 6.65819 26.7128 6.88651 26.2562 7.34314C25.7995 7.79977 25.5712 8.34052 25.5712 8.96539C25.5712 9.60228 25.7965 10.146 26.2471 10.5967C26.6978 11.0473 27.2415 11.2726 27.8784 11.2726C28.5153 11.2726 29.059 11.0473 29.5097 10.5967C29.9603 10.146 30.1856 9.60228 30.1856 8.96539ZM23.264 16.5539V19.8885C23.264 20.0087 23.2219 20.1259 23.1378 20.24C23.0537 20.3542 22.9576 20.4173 22.8494 20.4293L20.0556 20.8619C19.9234 21.2825 19.7311 21.7391 19.4788 22.2318C19.8873 22.8086 20.4281 23.4996 21.101 24.3047C21.1851 24.4248 21.2272 24.545 21.2272 24.6652C21.2272 24.8094 21.1851 24.9235 21.101 25.0076C20.8246 25.3681 20.3289 25.9059 19.6139 26.6209C18.8989 27.3359 18.4273 27.6934 18.199 27.6934C18.0668 27.6934 17.9406 27.6513 17.8205 27.5672L15.7476 25.9449C15.303 26.1733 14.8403 26.3595 14.3597 26.5037C14.2275 27.8015 14.0893 28.7328 13.9451 29.2976C13.861 29.586 13.6807 29.7302 13.4043 29.7302H10.0517C9.91949 29.7302 9.79933 29.6851 9.69118 29.595C9.58303 29.5049 9.52294 29.3997 9.51093 29.2796L9.09635 26.5217C8.68779 26.4016 8.23716 26.2153 7.74448 25.963L5.61753 27.5672C5.53341 27.6513 5.41324 27.6934 5.25703 27.6934C5.12484 27.6934 4.99867 27.6453 4.8785 27.5492C3.1481 25.951 2.2829 24.9896 2.2829 24.6652C2.2829 24.557 2.32496 24.4429 2.40908 24.3227C2.52924 24.1545 2.77558 23.836 3.1481 23.3674C3.52062 22.8987 3.80301 22.5322 3.99528 22.2678C3.71889 21.7391 3.5086 21.2464 3.3644 20.7898L0.624601 20.3572C0.504435 20.3452 0.402293 20.2881 0.318176 20.186C0.23406 20.0838 0.192001 19.9667 0.192001 19.8345V16.4998C0.192001 16.3797 0.23406 16.2625 0.318176 16.1484C0.402293 16.0342 0.498426 15.9711 0.606576 15.9591L3.40045 15.5265C3.53263 15.1059 3.7249 14.6493 3.97725 14.1566C3.56869 13.5798 3.02793 12.8888 2.355 12.0837C2.27088 11.9515 2.22883 11.8314 2.22883 11.7232C2.22883 11.579 2.27088 11.4589 2.355 11.3627C2.61937 11.0022 3.11205 10.4675 3.83305 9.75849C4.55405 9.04951 5.02871 8.69502 5.25703 8.69502C5.38921 8.69502 5.51539 8.73708 5.63555 8.82119L7.70843 10.4434C8.11699 10.2271 8.57964 10.0349 9.09635 9.86664C9.22854 8.56884 9.36673 7.64356 9.51093 7.09079C9.59504 6.80239 9.77529 6.65819 10.0517 6.65819H13.4043C13.5365 6.65819 13.6567 6.70325 13.7648 6.79338C13.873 6.8835 13.9331 6.98865 13.9451 7.10882L14.3597 9.86664C14.7682 9.98681 15.2188 10.1731 15.7115 10.4254L17.8385 8.82119C17.9346 8.73708 18.0548 8.69502 18.199 8.69502C18.3312 8.69502 18.4573 8.74308 18.5775 8.83922C20.3079 10.4374 21.1731 11.3988 21.1731 11.7232C21.1731 11.8314 21.131 11.9455 21.0469 12.0657C20.9027 12.258 20.6504 12.5824 20.2899 13.039C19.9294 13.4957 19.659 13.8562 19.4788 14.1205C19.7551 14.6973 19.9594 15.19 20.0916 15.5986L22.8314 16.0132C22.9516 16.0372 23.0537 16.1003 23.1378 16.2024C23.2219 16.3046 23.264 16.4217 23.264 16.5539ZM34.8 26.1612V28.6847C34.8 28.877 33.9048 29.0633 32.1143 29.2435C31.9701 29.568 31.7898 29.8804 31.5735 30.1808C32.1864 31.5387 32.4928 32.3679 32.4928 32.6683C32.4928 32.7163 32.4688 32.7584 32.4207 32.7944C30.9547 33.6476 30.2096 34.0742 30.1856 34.0742C30.0895 34.0742 29.8131 33.7918 29.3565 33.227C28.8998 32.6623 28.5874 32.2537 28.4192 32.0013C28.1788 32.0254 27.9986 32.0374 27.8784 32.0374C27.7582 32.0374 27.578 32.0254 27.3377 32.0013C27.1694 32.2537 26.857 32.6623 26.4004 33.227C25.9437 33.7918 25.6673 34.0742 25.5712 34.0742C25.5472 34.0742 24.8021 33.6476 23.3361 32.7944C23.288 32.7584 23.264 32.7163 23.264 32.6683C23.264 32.3679 23.5704 31.5387 24.1833 30.1808C23.967 29.8804 23.7867 29.568 23.6425 29.2435C21.852 29.0633 20.9568 28.877 20.9568 28.6847V26.1612C20.9568 25.969 21.852 25.7827 23.6425 25.6025C23.7987 25.254 23.979 24.9416 24.1833 24.6652C23.5704 23.3073 23.264 22.4781 23.264 22.1777C23.264 22.1297 23.288 22.0876 23.3361 22.0515C23.3842 22.0275 23.5945 21.9073 23.967 21.691C24.3395 21.4747 24.694 21.2705 25.0305 21.0782C25.3669 20.8859 25.5472 20.7898 25.5712 20.7898C25.6673 20.7898 25.9437 21.0692 26.4004 21.628C26.857 22.1867 27.1694 22.5923 27.3377 22.8446C27.578 22.8206 27.7582 22.8086 27.8784 22.8086C27.9986 22.8086 28.1788 22.8206 28.4192 22.8446C29.032 21.9915 29.5848 21.3185 30.0775 20.8258L30.1856 20.7898C30.2337 20.7898 30.9787 21.2104 32.4207 22.0515C32.4688 22.0876 32.4928 22.1297 32.4928 22.1777C32.4928 22.4781 32.1864 23.3073 31.5735 24.6652C31.7778 24.9416 31.9581 25.254 32.1143 25.6025C33.9048 25.7827 34.8 25.969 34.8 26.1612ZM34.8 7.70364V10.2271C34.8 10.4194 33.9048 10.6057 32.1143 10.7859C31.9701 11.1104 31.7898 11.4228 31.5735 11.7232C32.1864 13.0811 32.4928 13.9102 32.4928 14.2107C32.4928 14.2587 32.4688 14.3008 32.4207 14.3368C30.9547 15.19 30.2096 15.6166 30.1856 15.6166C30.0895 15.6166 29.8131 15.3342 29.3565 14.7694C28.8998 14.2047 28.5874 13.7961 28.4192 13.5437C28.1788 13.5678 27.9986 13.5798 27.8784 13.5798C27.7582 13.5798 27.578 13.5678 27.3377 13.5437C27.1694 13.7961 26.857 14.2047 26.4004 14.7694C25.9437 15.3342 25.6673 15.6166 25.5712 15.6166C25.5472 15.6166 24.8021 15.19 23.3361 14.3368C23.288 14.3008 23.264 14.2587 23.264 14.2107C23.264 13.9102 23.5704 13.0811 24.1833 11.7232C23.967 11.4228 23.7867 11.1104 23.6425 10.7859C21.852 10.6057 20.9568 10.4194 20.9568 10.2271V7.70364C20.9568 7.51138 21.852 7.32512 23.6425 7.14487C23.7987 6.79638 23.979 6.48395 24.1833 6.20757C23.5704 4.84968 23.264 4.02053 23.264 3.72012C23.264 3.67205 23.288 3.62999 23.3361 3.59394C23.3842 3.56991 23.5945 3.44974 23.967 3.23344C24.3395 3.01714 24.694 2.81286 25.0305 2.62059C25.3669 2.42832 25.5472 2.33219 25.5712 2.33219C25.6673 2.33219 25.9437 2.61158 26.4004 3.17035C26.857 3.72913 27.1694 4.13469 27.3377 4.38704C27.578 4.36301 27.7582 4.35099 27.8784 4.35099C27.9986 4.35099 28.1788 4.36301 28.4192 4.38704C29.032 3.53386 29.5848 2.86092 30.0775 2.36824L30.1856 2.33219C30.2337 2.33219 30.9787 2.75278 32.4207 3.59394C32.4688 3.62999 32.4928 3.67205 32.4928 3.72012C32.4928 4.02053 32.1864 4.84968 31.5735 6.20757C31.7778 6.48395 31.9581 6.79638 32.1143 7.14487C33.9048 7.32512 34.8 7.51138 34.8 7.70364Z" fill="#333333"/>
</svg>
