<svg width="16" height="24" viewBox="0 0 16 24" fill="none" xmlns="http://www.w3.org/2000/svg">
<g clip-path="url(#clip0_187_30)">
<path d="M10.5554 10.1071C10.5554 10.1071 10.2831 10.3793 9.73867 10.9238C9.1942 11.4682 8.15234 11.7405 6.61309 11.7405C5.07384 11.7405 3.75975 11.196 2.67081 10.1071C1.58187 9.01813 1.0374 7.70813 1.0374 6.17706C1.0374 4.63781 1.58187 3.32372 2.67081 2.23478C3.75975 1.14585 5.07384 0.601376 6.61309 0.601376C8.15234 0.601376 9.46644 1.14585 10.5554 2.23478C11.6443 3.32372 12.1888 4.63781 12.1888 6.17706C12.1888 7.70813 11.6443 9.01813 10.5554 10.1071ZM8.54739 4.23049C8.54739 4.23049 8.41332 4.09641 8.14518 3.82827C7.87704 3.56013 7.36634 3.42606 6.61309 3.42606C5.85984 3.42606 5.21508 3.6942 4.67879 4.23049C4.14251 4.76677 3.87437 5.41563 3.87437 6.17706C3.87437 6.93031 4.14251 7.57508 4.67879 8.11136C5.21508 8.64764 5.85984 8.91578 6.61309 8.91578C7.36634 8.91578 8.01111 8.64764 8.54739 8.11136C9.08367 7.57508 9.35181 6.93031 9.35181 6.17706C9.35181 5.41563 9.08367 4.76677 8.54739 4.23049ZM13.0362 12.4159C13.1426 12.637 13.204 12.8396 13.2204 13.0239C13.2368 13.2081 13.2184 13.3739 13.1651 13.5213C13.1119 13.6686 13.0034 13.8262 12.8397 13.9941C12.6759 14.1619 12.502 14.3134 12.3177 14.4485C12.1335 14.5836 11.8817 14.7535 11.5624 14.9582C10.6209 15.5558 9.33134 15.9407 7.69384 16.1126L8.59037 16.9968L11.8695 20.2759C12.1151 20.5298 12.2379 20.8327 12.2379 21.1848C12.2379 21.5368 12.1151 21.8357 11.8695 22.0813L11.7221 22.2409C11.4683 22.4866 11.1653 22.6094 10.8133 22.6094C10.4612 22.6094 10.1583 22.4866 9.90447 22.2409C9.3559 21.6842 8.26287 20.5871 6.62537 18.9496L3.34628 22.2409C3.09247 22.4866 2.78953 22.6094 2.43747 22.6094C2.0854 22.6094 1.78656 22.4866 1.54094 22.2409L1.39356 22.0813C1.13975 21.8357 1.01284 21.5368 1.01284 21.1848C1.01284 20.8327 1.13975 20.5298 1.39356 20.2759L4.67265 16.9968L5.5569 16.1126C3.89484 15.9407 2.59712 15.5558 1.66375 14.9582C1.34444 14.7535 1.09267 14.5836 0.908451 14.4485C0.724233 14.3134 0.550248 14.1619 0.386498 13.9941C0.222748 13.8262 0.114264 13.6686 0.061045 13.5213C0.00782628 13.3739 -0.0105956 13.2081 0.00577941 13.0239C0.0221544 12.8396 0.0835607 12.637 0.189998 12.4159C0.271873 12.2522 0.386498 12.1089 0.533873 11.9861C0.681248 11.8633 0.853186 11.7732 1.04969 11.7159C1.24619 11.6586 1.47544 11.6668 1.73744 11.7405C1.99944 11.8142 2.26553 11.9574 2.53572 12.1703C2.57665 12.2031 2.63806 12.2481 2.71994 12.3054C2.80181 12.3627 2.97784 12.463 3.24803 12.6063C3.51822 12.7496 3.80069 12.8744 4.09544 12.9809C4.39019 13.0873 4.76681 13.1856 5.22531 13.2756C5.68381 13.3657 6.1464 13.4107 6.61309 13.4107C7.35815 13.4107 8.07047 13.3063 8.75003 13.0975C9.42959 12.8888 9.92084 12.682 10.2238 12.4773L10.6905 12.1703C10.9607 11.9574 11.2267 11.8142 11.4887 11.7405C11.7507 11.6668 11.98 11.6586 12.1765 11.7159C12.373 11.7732 12.5449 11.8633 12.6923 11.9861C12.8397 12.1089 12.9543 12.2522 13.0362 12.4159Z" fill="#F1F1F1"/>
</g>
<defs>
<clipPath id="clip0_187_30">
<rect width="15.72" height="23" fill="white" transform="matrix(1 0 0 -1 0 23.3203)"/>
</clipPath>
</defs>
</svg>
