<svg width="24" height="24" viewBox="0 0 24 24" fill="none" xmlns="http://www.w3.org/2000/svg">
<g clip-path="url(#clip0_187_15)">
<path d="M23.5554 6.99746C23.7437 7.52146 23.1297 8.72502 21.7133 10.6081C21.5168 10.8701 21.2507 11.2181 20.915 11.6521C20.2763 12.4708 19.9079 13.0071 19.8097 13.2609C19.6705 13.5966 19.7278 13.9282 19.9816 14.2557C20.1208 14.4276 20.4524 14.7633 20.9764 15.2627H20.9887L21.0009 15.275L21.0132 15.2873L21.0378 15.3119C22.1922 16.3844 22.9741 17.2891 23.3835 18.026C23.4081 18.067 23.4347 18.1181 23.4633 18.1795C23.492 18.2409 23.5206 18.3494 23.5493 18.505C23.578 18.6606 23.5759 18.7997 23.5432 18.9226C23.5104 19.0454 23.4081 19.1579 23.2361 19.2603C23.0642 19.3626 22.8227 19.4138 22.5115 19.4138L19.3675 19.4629C19.171 19.5039 18.9418 19.4834 18.6798 19.4015C18.4178 19.3196 18.2049 19.2296 18.0412 19.1313L17.7955 18.984C17.5499 18.812 17.2633 18.55 16.9358 18.198C16.6083 17.8459 16.3279 17.5286 16.0946 17.2462C15.8612 16.9637 15.6115 16.7263 15.3454 16.5339C15.0793 16.3414 14.848 16.278 14.6515 16.3435C14.627 16.3517 14.5942 16.366 14.5533 16.3865C14.5123 16.4069 14.4427 16.4663 14.3445 16.5646C14.2463 16.6628 14.1582 16.7836 14.0805 16.9269C14.0027 17.0701 13.9331 17.283 13.8717 17.5655C13.8103 17.8479 13.7837 18.1652 13.7918 18.5173C13.7918 18.6401 13.7775 18.7527 13.7489 18.855C13.7202 18.9574 13.6895 19.0331 13.6568 19.0822L13.6076 19.1436C13.4602 19.2992 13.2433 19.3892 12.9567 19.4138H11.5444C10.9631 19.4466 10.3654 19.379 9.75131 19.2112C9.13725 19.0433 8.59892 18.8264 8.13633 18.5603C7.67373 18.2942 7.25208 18.024 6.87136 17.7497C6.49064 17.4754 6.20203 17.24 6.00553 17.0435L5.6985 16.7488C5.61663 16.6669 5.50405 16.5441 5.36077 16.3803C5.21748 16.2166 4.92478 15.8441 4.48266 15.2627C4.04053 14.6814 3.60659 14.0633 3.18084 13.4083C2.75509 12.7533 2.25361 11.8895 1.67639 10.8169C1.09917 9.74437 0.564938 8.63087 0.0736875 7.47643C0.0245625 7.34543 0 7.2349 0 7.14484C0 7.05477 0.0122813 6.98927 0.0368438 6.94834L0.0859687 6.87465C0.208781 6.71909 0.442125 6.6413 0.786 6.6413L4.15106 6.61674C4.24931 6.63312 4.34347 6.65973 4.43353 6.69657C4.52359 6.73341 4.58909 6.76821 4.63003 6.80096L4.69144 6.8378C4.82244 6.92787 4.92069 7.05887 4.98619 7.2308C5.14994 7.64018 5.33825 8.06388 5.55113 8.50191C5.764 8.93995 5.93184 9.27359 6.05466 9.50284L6.25116 9.85899C6.48859 10.3502 6.71784 10.776 6.93891 11.1362C7.15997 11.4965 7.35852 11.7769 7.53455 11.9775C7.71058 12.1781 7.88047 12.3357 8.04422 12.4503C8.20797 12.565 8.34716 12.6223 8.46178 12.6223C8.57641 12.6223 8.68694 12.6018 8.79338 12.5609C8.80975 12.5527 8.83022 12.5322 8.85478 12.4995C8.87934 12.4667 8.92847 12.3766 9.00216 12.2293C9.07584 12.0819 9.13111 11.8895 9.16795 11.6521C9.2048 11.4146 9.24369 11.083 9.28463 10.6573C9.32556 10.2315 9.32556 9.7198 9.28463 9.12212C9.26825 8.79462 9.23141 8.49577 9.17409 8.22559C9.11678 7.9554 9.05947 7.76709 9.00216 7.66065L8.92847 7.51327C8.72378 7.2349 8.37581 7.05887 7.88456 6.98518C7.77813 6.9688 7.79859 6.87055 7.94597 6.69043C8.08516 6.53487 8.24072 6.41206 8.41266 6.32199C8.84659 6.10912 9.825 6.01087 11.3479 6.02724C12.0192 6.03543 12.5719 6.08865 13.0058 6.1869C13.1696 6.22784 13.3067 6.2831 13.4173 6.3527C13.5278 6.42229 13.6117 6.52054 13.669 6.64745C13.7263 6.77435 13.7693 6.90535 13.798 7.04045C13.8266 7.17554 13.841 7.3618 13.841 7.59924C13.841 7.83668 13.8369 8.06184 13.8287 8.27471C13.8205 8.48759 13.8103 8.77619 13.798 9.14054C13.7857 9.50488 13.7796 9.84262 13.7796 10.1537C13.7796 10.2438 13.7755 10.4157 13.7673 10.6696C13.7591 10.9234 13.757 11.1199 13.7611 11.2591C13.7652 11.3982 13.7796 11.564 13.8041 11.7564C13.8287 11.9489 13.8758 12.1085 13.9454 12.2354C14.015 12.3623 14.1071 12.4626 14.2217 12.5363C14.2872 12.5527 14.3568 12.5691 14.4305 12.5854C14.5042 12.6018 14.6106 12.5568 14.7498 12.4503C14.889 12.3439 15.0445 12.2027 15.2165 12.0266C15.3884 11.8506 15.6013 11.5763 15.8551 11.2038C16.1089 10.8313 16.3873 10.3912 16.6902 9.88355C17.1815 9.03205 17.6195 8.11096 18.0043 7.12027C18.0371 7.0384 18.078 6.96676 18.1271 6.90535C18.1763 6.84395 18.2213 6.80096 18.2622 6.7764L18.3113 6.73956C18.3277 6.73137 18.3482 6.72113 18.3728 6.70885C18.3973 6.69657 18.4505 6.68429 18.5324 6.67201C18.6143 6.65973 18.6962 6.65768 18.778 6.66587L22.315 6.6413C22.6343 6.60037 22.8963 6.6106 23.101 6.67201C23.3057 6.73341 23.4326 6.80096 23.4818 6.87465L23.5554 6.99746Z" fill="#F1F1F1"/>
</g>
<defs>
<clipPath id="clip0_187_15">
<rect width="23.58" height="23" fill="white" transform="matrix(1 0 0 -1 0 23.3301)"/>
</clipPath>
</defs>
</svg>
