<svg width="23" height="23" viewBox="0 0 23 23" fill="none" xmlns="http://www.w3.org/2000/svg">
<path d="M13.608 13.6079C13.608 13.6079 13.7536 13.4623 14.0447 13.1712C14.3359 12.88 14.4815 12.3229 14.4815 11.4999C14.4815 10.6769 14.1903 9.97421 13.608 9.39189C13.0257 8.80957 12.323 8.51841 11.5 8.51841C10.677 8.51841 9.97432 8.80957 9.392 9.39189C8.80968 9.97421 8.51852 10.6769 8.51852 11.4999C8.51852 12.3229 8.80968 13.0256 9.392 13.6079C9.97432 14.1902 10.677 14.4814 11.5 14.4814C12.323 14.4814 13.0257 14.1902 13.608 13.6079ZM20.4444 10.2304V12.8159C20.4444 12.9091 20.4134 12.9984 20.3513 13.0838C20.2892 13.1692 20.2115 13.2197 20.1183 13.2352L17.9638 13.5613C17.8162 13.9806 17.6648 14.3339 17.5095 14.6211C17.7813 15.0093 18.1967 15.5451 18.7557 16.2283C18.8334 16.3215 18.8722 16.4186 18.8722 16.5195C18.8722 16.6204 18.8372 16.7097 18.7674 16.7874C18.5577 17.0746 18.1734 17.4939 17.6144 18.0452C17.0553 18.5964 16.6904 18.8721 16.5196 18.8721C16.4264 18.8721 16.3255 18.8371 16.2168 18.7673L14.6096 17.5094C14.268 17.688 13.9147 17.8355 13.5498 17.952C13.4255 19.0079 13.313 19.73 13.212 20.1182C13.1577 20.3356 13.0179 20.4443 12.7928 20.4443H10.2072C10.0985 20.4443 10.0034 20.4113 9.92191 20.3453C9.84039 20.2793 9.79574 20.1959 9.78798 20.0949L9.46188 17.952C9.08143 17.8278 8.73204 17.6841 8.4137 17.5211L6.77156 18.7673C6.69391 18.8371 6.59686 18.8721 6.4804 18.8721C6.3717 18.8721 6.27464 18.8294 6.18924 18.744C5.21094 17.8588 4.57038 17.2066 4.26758 16.7874C4.21323 16.7097 4.18605 16.6204 4.18605 16.5195C4.18605 16.4263 4.21711 16.337 4.27922 16.2516C4.39569 16.0886 4.59368 15.8304 4.87319 15.4771C5.15271 15.1239 5.36234 14.8502 5.5021 14.6561C5.29246 14.2679 5.13329 13.8835 5.02459 13.5031L2.8933 13.1886C2.79237 13.1731 2.71084 13.1246 2.64873 13.043C2.58661 12.9615 2.55556 12.8703 2.55556 12.7694V10.1838C2.55556 10.0907 2.58661 10.0014 2.64873 9.91598C2.71084 9.83057 2.7846 9.7801 2.87001 9.76458L5.03624 9.43848C5.14494 9.08132 5.29634 8.72416 5.49045 8.36701C5.17988 7.92444 4.76449 7.38871 4.24429 6.7598C4.16664 6.66663 4.12782 6.57346 4.12782 6.48029C4.12782 6.40265 4.16276 6.31336 4.23264 6.21242C4.43451 5.93291 4.8169 5.51558 5.37981 4.96043C5.94272 4.40528 6.30958 4.12771 6.4804 4.12771C6.58133 4.12771 6.68227 4.16653 6.7832 4.24418L8.39041 5.49034C8.73204 5.31176 9.08531 5.16424 9.45023 5.04778C9.57446 3.99184 9.68704 3.26976 9.78798 2.88155C9.84233 2.66415 9.98208 2.55545 10.2072 2.55545H12.7928C12.9015 2.55545 12.9966 2.58845 13.0781 2.65444C13.1596 2.72044 13.2043 2.8039 13.212 2.90484L13.5381 5.04778C13.9186 5.17201 14.268 5.31565 14.5863 5.4787L16.2401 4.23253C16.31 4.16265 16.4031 4.12771 16.5196 4.12771C16.6205 4.12771 16.7176 4.16653 16.8108 4.24418C17.8124 5.16813 18.4529 5.82809 18.7324 6.22407C18.7868 6.28618 18.8139 6.37159 18.8139 6.48029C18.8139 6.57346 18.7829 6.66275 18.7208 6.74815C18.6043 6.91121 18.4063 7.16937 18.1268 7.52264C17.8473 7.87592 17.6377 8.14961 17.4979 8.34371C17.6998 8.73193 17.8589 9.11238 17.9754 9.48506L20.1067 9.81116C20.2076 9.82669 20.2892 9.87522 20.3513 9.95674C20.4134 10.0383 20.4444 10.1295 20.4444 10.2304Z" fill="#333333"/>
</svg>
