<svg width="19" height="24" viewBox="0 0 19 24" fill="none" xmlns="http://www.w3.org/2000/svg">
<g clip-path="url(#clip0_187_20)">
<path d="M16.7235 18.4527V10.4961H15.0659C15.2296 11.0118 15.3115 11.548 15.3115 12.1046C15.3115 13.136 15.0495 14.0876 14.5256 14.9594C14.0017 15.8312 13.2896 16.5208 12.3892 17.0284C11.4887 17.5359 10.5064 17.7896 9.44228 17.7896C7.82968 17.7896 6.45038 17.235 5.30438 16.1259C4.15837 15.0167 3.58536 13.6763 3.58536 12.1046C3.58536 11.548 3.66722 11.0118 3.83094 10.4961H2.09965V18.4527C2.09965 18.6655 2.17127 18.8436 2.31452 18.9868C2.45778 19.1301 2.63582 19.2017 2.84865 19.2017H15.9745C16.1792 19.2017 16.3552 19.1301 16.5025 18.9868C16.6498 18.8436 16.7235 18.6655 16.7235 18.4527ZM12.1252 14.5051C12.1252 14.5051 12.3104 14.326 12.6808 13.9679C13.0512 13.6098 13.2364 12.9232 13.2364 11.9082C13.2364 10.8931 12.866 10.0275 12.1252 9.31123C11.3844 8.59498 10.4901 8.23685 9.44228 8.23685C8.40269 8.23685 7.51249 8.59498 6.77167 9.31123C6.03086 10.0275 5.66046 10.8931 5.66046 11.9082C5.66046 12.9232 6.03086 13.7888 6.77167 14.5051C7.51249 15.2214 8.40269 15.5795 9.44228 15.5795C10.4901 15.5795 11.3844 15.2214 12.1252 14.5051ZM16.7235 7.48785V5.46187C16.7235 5.23267 16.6417 5.03417 16.4779 4.86636C16.3142 4.69855 16.1137 4.61465 15.8763 4.61465H13.7398C13.5024 4.61465 13.3019 4.69855 13.1382 4.86636C12.9744 5.03417 12.8926 5.23267 12.8926 5.46187V7.48785C12.8926 7.72524 12.9744 7.92579 13.1382 8.08951C13.3019 8.25322 13.5024 8.33508 13.7398 8.33508H15.8763C16.1137 8.33508 16.3142 8.25322 16.4779 8.08951C16.6417 7.92579 16.7235 7.72524 16.7235 7.48785ZM18.86 4.93389V18.9561C18.86 19.6192 18.6226 20.1881 18.1478 20.6628C17.6731 21.1376 17.1042 21.375 16.4411 21.375H2.41889C1.75585 21.375 1.18694 21.1376 0.712161 20.6628C0.237387 20.1881 0 19.6192 0 18.9561V4.93389C0 4.27085 0.237387 3.70193 0.712161 3.22716C1.18694 2.75239 1.75585 2.515 2.41889 2.515H16.4411C17.1042 2.515 17.6731 2.75239 18.1478 3.22716C18.6226 3.70193 18.86 4.27085 18.86 4.93389Z" fill="#F1F1F1"/>
</g>
<defs>
<clipPath id="clip0_187_20">
<rect width="18.86" height="23" fill="white" transform="matrix(1 0 0 -1 0 23.6602)"/>
</clipPath>
</defs>
</svg>
