<svg width="36" height="37" viewBox="0 0 36 37" fill="none" xmlns="http://www.w3.org/2000/svg">
<path d="M30 26.9948C30 28.349 29.6025 29.4182 28.8075 30.2025C28.0125 30.9868 26.9562 31.3789 25.6385 31.3789H11.3615C10.0438 31.3789 8.98745 30.9868 8.19247 30.2025C7.39749 29.4182 7 28.349 7 26.9948C7 26.3967 7.01906 25.8127 7.05717 25.2428C7.09529 24.673 7.17152 24.0579 7.28587 23.3978C7.40021 22.7376 7.54451 22.1254 7.71875 21.5612C7.89299 20.997 8.12713 20.4468 8.42116 19.9108C8.7152 19.3748 9.05279 18.9178 9.43395 18.5397C9.8151 18.1617 10.2807 17.8598 10.8306 17.6341C11.3806 17.4084 11.9877 17.2956 12.652 17.2956C12.75 17.2956 12.9787 17.4169 13.3381 17.6595C13.6974 17.9021 14.1031 18.173 14.555 18.472C15.007 18.7711 15.5951 19.0419 16.3192 19.2845C17.0434 19.5271 17.7704 19.6484 18.5 19.6484C19.2296 19.6484 19.9566 19.5271 20.6808 19.2845C21.4049 19.0419 21.993 18.7711 22.445 18.472C22.8969 18.173 23.3026 17.9021 23.6619 17.6595C24.0213 17.4169 24.25 17.2956 24.348 17.2956C25.0123 17.2956 25.6194 17.4084 26.1694 17.6341C26.7193 17.8598 27.1849 18.1617 27.566 18.5397C27.9472 18.9178 28.2848 19.3748 28.5788 19.9108C28.8729 20.4468 29.107 20.997 29.2812 21.5612C29.4555 22.1254 29.5998 22.7376 29.7141 23.3978C29.8285 24.0579 29.9047 24.673 29.9428 25.2428C29.9809 25.8127 30 26.3967 30 26.9948ZM22.935 7.2832C22.935 7.2832 23.2413 7.60059 23.8539 8.23535C24.4664 8.87012 24.7727 10.0846 24.7727 11.8789C24.7727 13.6732 24.1602 15.2051 22.935 16.4746C21.7099 17.7441 20.2315 18.3789 18.5 18.3789C16.7685 18.3789 15.2901 17.7441 14.065 16.4746C12.8398 15.2051 12.2273 13.6732 12.2273 11.8789C12.2273 10.0846 12.8398 8.55273 14.065 7.2832C15.2901 6.01367 16.7685 5.37891 18.5 5.37891C20.2315 5.37891 21.7099 6.01367 22.935 7.2832Z" fill="#333333"/>
</svg>
