<svg width="13" height="14" viewBox="0 0 13 14" fill="none" xmlns="http://www.w3.org/2000/svg">
<path d="M7.94444 8.8009C7.94444 8.8009 8.11238 8.63296 8.44827 8.29707C8.78415 7.96118 8.9521 7.32069 8.9521 6.37561C8.9521 5.43053 8.61621 4.6221 7.94444 3.95033C7.27266 3.27855 6.46423 2.94266 5.51915 2.94266C4.57406 2.94266 3.76564 3.27855 3.09386 3.95033C2.42209 4.6221 2.0862 5.43053 2.0862 6.37561C2.0862 7.32069 2.42209 8.12912 3.09386 8.8009C3.76564 9.47267 4.57406 9.80856 5.51915 9.80856C6.46423 9.80856 7.27266 9.47267 7.94444 8.8009ZM12.8755 12.7511C12.8755 13.0167 12.7784 13.2466 12.5843 13.4407C12.3902 13.6349 12.1603 13.7319 11.8946 13.7319C11.6188 13.7319 11.3889 13.6349 11.205 13.4407L8.57662 10.8201C7.66219 11.4535 6.64303 11.7702 5.51915 11.7702C4.78862 11.7702 4.09003 11.6285 3.42336 11.345C2.7567 11.0614 2.18198 10.6783 1.69922 10.1955C1.21647 9.71278 0.833324 9.13806 0.549799 8.4714C0.266274 7.80473 0.124512 7.10614 0.124512 6.37561C0.124512 5.64509 0.266274 4.94649 0.549799 4.27983C0.833324 3.61316 1.21647 3.03845 1.69922 2.55569C2.18198 2.07293 2.7567 1.68979 3.42336 1.40626C4.09003 1.12274 4.78862 0.980976 5.51915 0.980976C6.24967 0.980976 6.94827 1.12274 7.61493 1.40626C8.2816 1.68979 8.85631 2.07293 9.33907 2.55569C9.82183 3.03845 10.205 3.61316 10.4885 4.27983C10.772 4.94649 10.9138 5.64509 10.9138 6.37561C10.9138 7.49949 10.5971 8.51865 9.96359 9.43308L12.5919 12.0614C12.781 12.2505 12.8755 12.4803 12.8755 12.7511Z" fill="#787878"/>
</svg>
