<svg width="23" height="23" viewBox="0 0 23 23" fill="none" xmlns="http://www.w3.org/2000/svg">
<path d="M10.8531 16.2917H12.2906V10.5417H10.8531V16.2917ZM11.4996 8.76883C11.7235 8.76883 11.9113 8.69536 12.063 8.54841C12.2148 8.40147 12.2906 8.21939 12.2906 8.00216C12.2906 7.77137 12.2149 7.5779 12.0635 7.42177C11.912 7.26565 11.7243 7.18758 11.5004 7.18758C11.2765 7.18758 11.0887 7.26565 10.937 7.42177C10.7852 7.5779 10.7094 7.77137 10.7094 8.00216C10.7094 8.21939 10.7851 8.40147 10.9365 8.54841C11.088 8.69536 11.2757 8.76883 11.4996 8.76883ZM11.5064 21.0834C10.1849 21.0834 8.94309 20.8319 7.78085 20.3287C6.61862 19.8256 5.60226 19.1388 4.73177 18.2683C3.86129 17.3978 3.17448 16.3809 2.67135 15.2174C2.16823 14.054 1.91667 12.8109 1.91667 11.4881C1.91667 10.1653 2.16823 8.92219 2.67135 7.75877C3.17448 6.59534 3.86129 5.58237 4.73177 4.71987C5.60226 3.85737 6.61922 3.17456 7.78265 2.67144C8.94607 2.16831 10.1892 1.91675 11.512 1.91675C12.8348 1.91675 14.0779 2.16831 15.2413 2.67144C16.4047 3.17456 17.4177 3.85737 18.2802 4.71987C19.1427 5.58237 19.8255 6.59661 20.3286 7.76258C20.8318 8.92855 21.0833 10.1723 21.0833 11.4937C21.0833 12.8152 20.8318 14.057 20.3286 15.2192C19.8255 16.3815 19.1427 17.3964 18.2802 18.2639C17.4177 19.1315 16.4035 19.8183 15.2375 20.3243C14.0715 20.8304 12.8278 21.0834 11.5064 21.0834Z" fill="#333333"/>
</svg>
