<svg width="23" height="23" viewBox="0 0 23 23" fill="none" xmlns="http://www.w3.org/2000/svg">
<path d="M12.9375 12.9377C13.7361 12.9377 14.4149 12.6581 14.974 12.0991C15.533 11.5401 15.8125 10.8613 15.8125 10.0627C15.8125 9.26405 15.533 8.58523 14.974 8.0262C14.4149 7.46718 13.7361 7.18766 12.9375 7.18766C12.1389 7.18766 11.4601 7.46718 10.901 8.0262C10.342 8.58523 10.0625 9.26405 10.0625 10.0627C10.0625 10.8613 10.342 11.5401 10.901 12.0991C11.4601 12.6581 12.1389 12.9377 12.9375 12.9377ZM3.83333 16.2918V3.8335H22.0417V16.2918H3.83333ZM0.958333 19.1668V6.7085H2.39583V17.7293H19.1667V19.1668H0.958333ZM5.27083 7.66683C5.94167 7.66683 6.50868 7.43523 6.97187 6.97204C7.43507 6.50884 7.66667 5.94183 7.66667 5.271H5.27083V7.66683ZM20.6042 7.66683V5.271H18.2083C18.2083 5.94183 18.4399 6.50884 18.9031 6.97204C19.3663 7.43523 19.9333 7.66683 20.6042 7.66683ZM18.2083 14.8543H20.6042V12.4585C19.9333 12.4585 19.3663 12.6901 18.9031 13.1533C18.4399 13.6165 18.2083 14.1835 18.2083 14.8543ZM5.27083 14.8543H7.66667C7.66667 14.1835 7.43507 13.6165 6.97187 13.1533C6.50868 12.6901 5.94167 12.4585 5.27083 12.4585V14.8543Z" fill="#333333"/>
</svg>
