<svg width="23" height="23" viewBox="0 0 23 23" fill="none" xmlns="http://www.w3.org/2000/svg">
<path d="M18.6156 11.3324C18.5358 9.39972 17.821 7.75857 16.4714 6.40892C15.1217 5.05927 13.4806 4.34451 11.5479 4.26465V2.82715C12.7139 2.85909 13.804 3.10267 14.8182 3.55788C15.8325 4.01309 16.7229 4.62402 17.4896 5.39069C18.2562 6.15736 18.8672 7.04781 19.3224 8.06204C19.7776 9.07628 20.0212 10.1664 20.0531 11.3324H18.6156ZM14.5427 11.3324C14.4628 10.5337 14.1434 9.85892 13.5844 9.30788C13.0253 8.75684 12.3465 8.44138 11.5479 8.36152V6.92402C12.7458 7.00388 13.7641 7.45909 14.6026 8.28965C15.4411 9.1202 15.9003 10.1344 15.9802 11.3324H14.5427ZM19.0469 20.1251C17.0983 20.1251 15.1616 19.6499 13.237 18.6995C11.3123 17.7492 9.58333 16.5074 8.05 14.974C6.51667 13.4407 5.27083 11.7077 4.3125 9.77506C3.35417 7.84243 2.875 5.9018 2.875 3.95319C2.875 3.7775 2.88299 3.59382 2.89896 3.40215C2.91493 3.21048 2.93889 3.03479 2.97083 2.87507H8.05L9.00833 7.40319L6.20521 10.2303C7.09965 11.7157 8.10191 13.0094 9.21198 14.1115C10.322 15.2136 11.5799 16.148 12.9854 16.9146L15.7885 14.0157L20.125 14.974V20.0532C19.9653 20.0692 19.7896 20.0851 19.5979 20.1011C19.4062 20.1171 19.2226 20.1251 19.0469 20.1251Z" fill="#333333"/>
</svg>
