<svg width="70" height="57" viewBox="0 0 70 57" fill="none" xmlns="http://www.w3.org/2000/svg">
<path d="M58.08 20.7417L57.36 17.9708C56.8267 17.7597 56.28 17.4694 55.72 17.1C55.16 16.7306 54.6933 16.3347 54.32 15.9125L50.8 17.1792L49.2 14.4083L52 12.1917C51.8933 11.9278 51.8 11.6375 51.72 11.3208C51.64 11.0042 51.6 10.6875 51.6 10.3708C51.6 10.0542 51.64 9.7375 51.72 9.42083C51.8 9.10417 51.8933 8.81389 52 8.55L49.2 6.33333L50.8 3.5625L54.32 4.82917C54.6933 4.40694 55.16 3.99792 55.72 3.60208C56.28 3.20625 56.8267 2.92917 57.36 2.77083L58.08 0H61.12L61.84 2.77083C62.3733 2.92917 62.92 3.20625 63.48 3.60208C64.04 3.99792 64.5067 4.40694 64.88 4.82917L68.4 3.5625L70 6.33333L67.2 8.55C67.3067 8.81389 67.4 9.10417 67.48 9.42083C67.56 9.7375 67.6 10.0542 67.6 10.3708C67.6 10.6875 67.56 11.0042 67.48 11.3208C67.4 11.6375 67.3067 11.9278 67.2 12.1917L70 14.4083L68.4 17.1792L64.88 15.9125C64.5067 16.3347 64.04 16.7306 63.48 17.1C62.92 17.4694 62.3733 17.7597 61.84 17.9708L61.12 20.7417H58.08ZM59.6 14.9625C60.9333 14.9625 62.04 14.5271 62.92 13.6562C63.8 12.7854 64.24 11.6903 64.24 10.3708C64.24 9.05139 63.8 7.95625 62.92 7.08542C62.04 6.21458 60.9333 5.77917 59.6 5.77917C58.2667 5.77917 57.16 6.21458 56.28 7.08542C55.4 7.95625 54.96 9.05139 54.96 10.3708C54.96 11.6903 55.4 12.7854 56.28 13.6562C57.16 14.5271 58.2667 14.9625 59.6 14.9625ZM49.44 37.9208L49.28 35.625C48.9067 35.4139 48.52 35.1764 48.12 34.9125C47.72 34.6486 47.36 34.3847 47.04 34.1208L44.96 35.2292L43.2 32.6958L45.28 31.1917C45.1733 30.9806 45.12 30.7826 45.12 30.5979V29.4104C45.12 29.2257 45.1733 29.0278 45.28 28.8167L43.2 27.3125L44.96 24.7792L47.04 25.8875L48.16 25.0958C48.5333 24.8319 48.9067 24.5944 49.28 24.3833L49.44 22.0875H52.64L52.8 24.3833C53.1733 24.5944 53.5467 24.8319 53.92 25.0958L55.04 25.8875L57.12 24.7792L58.88 27.3125L56.8 28.8167C56.9067 29.0278 56.96 29.2257 56.96 29.4104V30.5979C56.96 30.7826 56.9067 30.9806 56.8 31.1917L58.88 32.6958L57.12 35.2292L55.04 34.1208C54.72 34.3847 54.36 34.6486 53.96 34.9125C53.56 35.1764 53.1733 35.4139 52.8 35.625L52.64 37.9208H49.44ZM51.04 33.0125C51.8933 33.0125 52.6133 32.7222 53.2 32.1417C53.7867 31.5611 54.08 30.8486 54.08 30.0042C54.08 29.1597 53.7867 28.4472 53.2 27.8667C52.6133 27.2861 51.8933 26.9958 51.04 26.9958C50.1867 26.9958 49.4667 27.2861 48.88 27.8667C48.2933 28.4472 48 29.1597 48 30.0042C48 30.8486 48.2933 31.5611 48.88 32.1417C49.4667 32.7222 50.1867 33.0125 51.04 33.0125ZM25.28 32.8542C21.76 32.8542 18.88 31.7194 16.64 29.45C14.4 27.1806 13.28 24.3569 13.28 20.9792H10.88V17.8125H13.28C13.28 15.7014 13.8133 13.8014 14.88 12.1125C15.9467 10.4236 17.3333 9.05139 19.04 7.99583V11.0833C19.04 11.4 19.16 11.6771 19.4 11.9146C19.64 12.1521 19.92 12.2708 20.24 12.2708C20.6133 12.2708 20.9067 12.1521 21.12 11.9146C21.3333 11.6771 21.44 11.4 21.44 11.0833V6.96667C21.8667 6.86111 22.4533 6.76875 23.2 6.68958C23.9467 6.61042 24.6667 6.57083 25.36 6.57083C26.0533 6.57083 26.7733 6.61042 27.52 6.68958C28.2667 6.76875 28.8533 6.86111 29.28 6.96667V11.0833C29.28 11.4 29.3867 11.6771 29.6 11.9146C29.8133 12.1521 30.1067 12.2708 30.48 12.2708C30.8 12.2708 31.08 12.1521 31.32 11.9146C31.56 11.6771 31.68 11.4 31.68 11.0833V7.99583C33.3867 9.05139 34.7467 10.4236 35.76 12.1125C36.7733 13.8014 37.28 15.7014 37.28 17.8125H39.68V20.9792H37.28C37.28 24.3569 36.16 27.1806 33.92 29.45C31.68 31.7194 28.8 32.8542 25.28 32.8542ZM25.28 28.1042C27.52 28.1042 29.28 27.4444 30.56 26.125C31.84 24.8056 32.48 23.0903 32.48 20.9792H18.08C18.08 23.0903 18.72 24.8056 20 26.125C21.28 27.4444 23.04 28.1042 25.28 28.1042ZM0 57V49.7167C0 47.9222 0.426667 46.4312 1.28 45.2437C2.13333 44.0562 3.33333 43.0931 4.88 42.3542C7.76 40.9819 10.84 39.8472 14.12 38.95C17.4 38.0528 21.12 37.6042 25.28 37.6042C29.44 37.6042 33.16 38.0528 36.44 38.95C39.72 39.8472 42.8 40.9819 45.68 42.3542C47.2267 43.0931 48.4267 44.0562 49.28 45.2437C50.1333 46.4312 50.56 47.9222 50.56 49.7167V57H0Z" fill="#333333"/>
</svg>
