<svg width="18" height="18" viewBox="0 0 18 18" fill="none" xmlns="http://www.w3.org/2000/svg">
<path d="M11.4363 8.9999C11.4363 10.3433 10.3433 11.4363 8.9999 11.4363C7.65646 11.4363 6.56354 10.3433 6.56354 8.9999C6.56354 7.65646 7.65646 6.56354 8.9999 6.56354C10.3433 6.56354 11.4363 7.65646 11.4363 8.9999ZM8.9999 0.899902C4.53333 0.899902 0.899902 4.53333 0.899902 8.9999C0.899902 13.4665 4.53333 17.0999 8.9999 17.0999C10.6361 17.0999 12.2139 16.6127 13.5625 15.6911L13.5857 15.6749L12.4945 14.4067L12.476 14.4182C11.438 15.0865 10.2357 15.4394 8.9999 15.4394C5.44921 15.4394 2.5604 12.5506 2.5604 8.9999C2.5604 5.44921 5.44921 2.5604 8.9999 2.5604C12.5506 2.5604 15.4394 5.44921 15.4394 8.9999C15.4394 9.45987 15.3879 9.92562 15.2878 10.3838C15.0842 11.2199 14.4986 11.4756 14.0595 11.4421C13.6175 11.4062 13.1002 11.0914 13.0968 10.3208V9.73353V8.9999C13.0968 6.74058 11.2592 4.90304 8.9999 4.90304C6.74058 4.90304 4.90304 6.74058 4.90304 8.9999C4.90304 11.2592 6.74058 13.0968 8.9999 13.0968C10.0975 13.0968 11.1267 12.668 11.9026 11.8876C12.3539 12.5899 13.0892 13.0302 13.9264 13.0973C13.9982 13.1031 14.0717 13.106 14.144 13.106C14.7335 13.106 15.3173 12.9087 15.7883 12.5518C16.2737 12.1826 16.6365 11.6498 16.8367 11.0093C16.8685 10.9057 16.9275 10.6691 16.9275 10.6673L16.9292 10.6587C17.0473 10.1449 17.0999 9.63286 17.0999 8.9999C17.0999 4.53333 13.4665 0.899902 8.9999 0.899902Z" fill="#333333"/>
</svg>
