<svg width="18" height="18" viewBox="0 0 18 18" fill="none" xmlns="http://www.w3.org/2000/svg">
<path d="M16.875 18C14.8417 18 12.8208 17.5042 10.8125 16.5125C8.80417 15.5208 7 14.225 5.4 12.625C3.8 11.025 2.5 9.21667 1.5 7.2C0.5 5.18333 0 3.15833 0 1.125C0 0.941667 0.00833333 0.75 0.025 0.55C0.0416667 0.35 0.0666667 0.166667 0.1 0H5.4L6.4 4.725L3.475 7.675C4.40833 9.225 5.45417 10.575 6.6125 11.725C7.77083 12.875 9.08333 13.85 10.55 14.65L13.475 11.625L18 12.625V17.925C17.8333 17.9417 17.65 17.9583 17.45 17.975C17.25 17.9917 17.0583 18 16.875 18Z" fill="#FA4951"/>
</svg>
