<svg width="14" height="22" viewBox="0 0 14 22" fill="none" xmlns="http://www.w3.org/2000/svg">
<path d="M7.00438 20.125C7.21813 20.125 7.39583 20.0527 7.5375 19.9081C7.67917 19.7635 7.75 19.5844 7.75 19.3706C7.75 19.1569 7.67771 18.9792 7.53313 18.8375C7.38853 18.6958 7.20936 18.625 6.99563 18.625C6.78188 18.625 6.60417 18.6973 6.4625 18.8419C6.32083 18.9865 6.25 19.1656 6.25 19.3794C6.25 19.5931 6.32229 19.7708 6.46688 19.9125C6.61148 20.0542 6.79064 20.125 7.00438 20.125ZM0 22V0H14V22H0ZM1.5 16.75H12.5V3.75H1.5V16.75Z" fill="#FA4951"/>
</svg>
