<svg width="18" height="14" viewBox="0 0 18 14" fill="none" xmlns="http://www.w3.org/2000/svg">
<path d="M17.6017 2.44676L17.6242 2.59376C17.4067 1.82201 16.8195 1.22651 16.0732 1.00976L16.0575 1.00601C14.6542 0.62501 9.00748 0.62501 9.00748 0.62501C9.00748 0.62501 3.37498 0.61751 1.95748 1.00601C1.19698 1.22651 0.608976 1.82201 0.395226 2.57801L0.391476 2.59376C-0.132773 5.33201 -0.136524 8.62226 0.414726 11.554L0.391476 11.4055C0.608976 12.1773 1.19623 12.7728 1.94248 12.9895L1.95823 12.9933C3.35998 13.375 9.00823 13.375 9.00823 13.375C9.00823 13.375 14.64 13.375 16.0582 12.9933C16.8195 12.7728 17.4075 12.1773 17.6212 11.4213L17.625 11.4055C17.8635 10.132 18 8.66651 18 7.16951C18 7.11476 18 7.05926 17.9992 7.00376C18 6.95276 18 6.89201 18 6.83126C18 5.33351 17.8635 3.86801 17.6017 2.44676ZM7.20598 9.73826V4.26851L11.9055 7.00751L7.20598 9.73826Z" fill="#333333"/>
</svg>
