<svg width="18" height="22" viewBox="0 0 18 22" fill="none" xmlns="http://www.w3.org/2000/svg">
<path d="M9.05 22.0001V20.5001H16.5V19.1501H12.8V11.7501H16.5V10.0501C16.5 7.98343 15.775 6.20426 14.325 4.7126C12.875 3.22093 11.1167 2.4751 9.05 2.4751C6.98333 2.4751 5.20833 3.22093 3.725 4.7126C2.24167 6.20426 1.5 7.98343 1.5 10.0501V11.7501H5.2V19.1501H0V10.0551C0 8.80872 0.2375 7.63395 0.7125 6.53075C1.1875 5.42756 1.83333 4.46332 2.65 3.63802C3.46667 2.81274 4.4267 2.1626 5.5301 1.6876C6.63352 1.2126 7.80852 0.975098 9.0551 0.975098C10.3017 0.975098 11.4708 1.2126 12.5625 1.6876C13.6542 2.1626 14.6004 2.81247 15.4013 3.63722C16.2022 4.46197 16.8355 5.42559 17.3013 6.52807C17.7671 7.63054 18 8.80455 18 10.0501V22.0001H9.05Z" fill="#FA4951"/>
</svg>
