<svg width="23" height="23" viewBox="0 0 23 23" fill="none" xmlns="http://www.w3.org/2000/svg">
<path d="M11.476 18.0167C11.7316 18.0167 11.9273 17.9728 12.063 17.885C12.1988 17.7971 12.2667 17.6654 12.2667 17.4897C12.2667 17.314 12.1988 17.1782 12.063 17.0824C11.9273 16.9865 11.7236 16.9386 11.4521 16.9386C10.7813 16.9386 10.0984 16.727 9.40365 16.3037C8.70886 15.8805 8.26563 15.1338 8.07396 14.0636C8.04201 13.9199 7.97014 13.8041 7.85833 13.7162C7.74653 13.6284 7.62674 13.5845 7.49896 13.5845C7.32326 13.5845 7.1875 13.6523 7.09167 13.7881C6.99583 13.9239 6.96389 14.0636 6.99583 14.2074C7.23542 15.549 7.80243 16.5194 8.69688 17.1183C9.59132 17.7173 10.5177 18.0167 11.476 18.0167ZM11.5 21.0834C9.31181 21.0834 7.48698 20.3327 6.02552 18.8313C4.56406 17.3299 3.83333 15.4612 3.83333 13.2251C3.83333 11.6279 4.46823 9.89088 5.73802 8.01414C7.00781 6.13741 8.92847 4.10494 11.5 1.91675C14.0715 4.10494 15.9922 6.13741 17.262 8.01414C18.5318 9.89088 19.1667 11.6279 19.1667 13.2251C19.1667 15.4612 18.4359 17.3299 16.9745 18.8313C15.513 20.3327 13.6882 21.0834 11.5 21.0834Z" fill="#333333"/>
</svg>
