<svg width="36" height="36" viewBox="0 0 36 36" fill="none" xmlns="http://www.w3.org/2000/svg">
<g clip-path="url(#clip0_67_907)">
<circle cx="18" cy="17.9995" r="15.8824" fill="white"/>
<path d="M16.2773 0.0773201C10.6523 0.660915 5.72344 3.71951 2.72812 8.4867C-1.51875 15.2367 -0.72422 24.1594 4.64062 30.0375C7.61484 33.2929 11.3273 35.2406 15.7852 35.8734C16.6148 35.9929 19.3781 35.9859 20.25 35.8734C24.3211 35.3109 27.9633 33.5039 30.7336 30.6773C31.6477 29.7492 31.8375 29.5312 32.4422 28.7297C34.2422 26.332 35.4164 23.407 35.8734 20.2148C35.993 19.3851 35.993 16.6148 35.8734 15.7851C35.5711 13.6547 35.0156 11.8406 34.1367 10.0617C33.1945 8.17732 32.2383 6.83435 30.7406 5.32263C27.9633 2.51014 24.4898 0.759354 20.4961 0.168728C19.6312 0.0421638 17.1352 -0.0140839 16.2773 0.0773201ZM20.7422 7.19295C27.0352 8.6906 30.607 15.0469 28.582 21.1359C28.0617 22.7109 27.232 24.0258 25.9805 25.2844C24.3984 26.8734 22.6898 27.8015 20.4609 28.2726C19.8492 28.4062 19.4977 28.4344 18.4219 28.4344C16.643 28.4414 15.532 28.2094 13.9641 27.5203C13.5773 27.3515 13.2117 27.2109 13.1484 27.2109C13.0922 27.2109 11.8125 27.5414 10.3008 27.9422C8.79609 28.3359 7.55156 28.6594 7.54453 28.6523C7.53047 28.6453 7.86797 27.3937 8.28281 25.875L9.04219 23.1047L8.71172 22.4297C7.9664 20.9179 7.63594 19.4765 7.63594 17.7187C7.64297 14.7094 8.70469 12.157 10.8281 10.0547C12.4945 8.40232 14.6039 7.37576 17.0508 7.0031C17.1703 6.98904 17.8805 6.98201 18.6328 6.99607C19.8 7.01717 20.1164 7.04529 20.7422 7.19295Z" fill="#29CD43"/>
<path d="M17.6133 8.80312C14.168 9.04922 11.018 11.5102 9.91407 14.8219C9.5625 15.8906 9.46407 16.5234 9.46407 17.7188C9.46407 19.5398 9.8086 20.7562 10.8352 22.5422L10.9969 22.8375L10.5609 24.4336C10.3219 25.3125 10.132 26.0508 10.1531 26.0648C10.1672 26.0789 10.9125 25.8961 11.8125 25.6641L13.4508 25.2281L14.3016 25.657C15.7008 26.3531 16.9172 26.6484 18.4289 26.6484C22.2047 26.6484 25.657 24.1594 26.8523 20.5594C27.2109 19.4695 27.3023 18.9141 27.3023 17.7188C27.3023 16.8609 27.2672 16.4742 27.1477 15.8906C26.3813 12.2977 23.5547 9.5414 19.9688 8.90156C19.2023 8.76797 18.4922 8.73984 17.6133 8.80312ZM15.4828 12.8883C15.7078 13.1414 16.6148 15.3844 16.5656 15.5742C16.5445 15.6586 16.3336 15.975 16.1016 16.2844C15.8695 16.5867 15.6797 16.882 15.6797 16.9453C15.6797 17.0789 16.2422 17.9156 16.6781 18.4289C17.1492 18.9844 18.0422 19.6594 18.7945 20.0461C19.7438 20.5172 19.793 20.5172 20.3344 19.8492C21.0094 19.0266 21.0727 18.9703 21.2555 19.0195C21.4664 19.0828 23.4773 20.025 23.6883 20.1586C23.843 20.257 23.85 20.2992 23.8148 20.7352C23.7938 20.9953 23.7234 21.3398 23.6602 21.5016C23.5125 21.8672 22.9781 22.3594 22.4438 22.6195C22.0711 22.8023 21.9797 22.8164 21.1992 22.8164C20.4188 22.8164 20.3063 22.7953 19.6875 22.5773C18.668 22.2117 18.0352 21.9094 17.2688 21.3961C15.7922 20.4117 14.0414 18.4359 13.3242 16.9383C13.0148 16.2844 12.9164 15.7922 12.9516 15.0469C12.9867 14.3508 13.1625 13.8937 13.6266 13.3172C14.0063 12.8531 14.2594 12.7336 14.857 12.7266C15.2719 12.7266 15.3563 12.7477 15.4828 12.8883Z" fill="#29CD43"/>
</g>
<defs>
<clipPath id="clip0_67_907">
<rect width="36" height="36" fill="white"/>
</clipPath>
</defs>
</svg>
