<svg width="17" height="18" viewBox="0 0 17 18" fill="none" xmlns="http://www.w3.org/2000/svg">
<path d="M10.3889 11.3154C10.3889 11.3154 10.6085 11.0994 11.0478 10.6676C11.487 10.2357 11.7066 9.41225 11.7066 8.19715C11.7066 6.98204 11.2674 5.94263 10.3889 5.07892C9.51042 4.21521 8.45324 3.78335 7.21737 3.78335C5.98149 3.78335 4.92431 4.21521 4.04584 5.07892C3.16736 5.94263 2.72812 6.98204 2.72812 8.19715C2.72812 9.41225 3.16736 10.4517 4.04584 11.3154C4.92431 12.1791 5.98149 12.6109 7.21737 12.6109C8.45324 12.6109 9.51042 12.1791 10.3889 11.3154ZM16.8372 16.3942C16.8372 16.7357 16.7102 17.0313 16.4564 17.2809C16.2025 17.5305 15.9019 17.6553 15.5545 17.6553C15.1938 17.6553 14.8932 17.5305 14.6527 17.2809L11.2156 13.9114C10.0198 14.7259 8.68706 15.1331 7.21737 15.1331C6.26207 15.1331 5.34852 14.9508 4.47672 14.5863C3.60493 14.2218 2.85338 13.7292 2.22208 13.1085C1.59078 12.4878 1.08975 11.7489 0.718987 10.8917C0.348223 10.0346 0.162842 9.13639 0.162842 8.19715C0.162842 7.2579 0.348223 6.35971 0.718987 5.50256C1.08975 4.64542 1.59078 3.90651 2.22208 3.28582C2.85338 2.66513 3.60493 2.17251 4.47672 1.80798C5.34852 1.44345 6.26207 1.26118 7.21737 1.26118C8.17267 1.26118 9.08621 1.44345 9.95801 1.80798C10.8298 2.17251 11.5814 2.66513 12.2127 3.28582C12.8439 3.90651 13.345 4.64542 13.7157 5.50256C14.0865 6.35971 14.2719 7.2579 14.2719 8.19715C14.2719 9.64214 13.8577 10.9525 13.0293 12.1282L16.4664 15.5075C16.7136 15.7505 16.8372 16.0461 16.8372 16.3942Z" fill="#787878"/>
</svg>
