<svg width="36" height="36" viewBox="0 0 36 36" fill="none" xmlns="http://www.w3.org/2000/svg">
<circle cx="18" cy="18" r="18" fill="#5C5C5C"/>
<path d="M23.5954 24.3945C22.1507 24.3945 20.7148 24.0422 19.2878 23.3375C17.8608 22.6329 16.5789 21.7122 15.4421 20.5754C14.3053 19.4385 13.3816 18.1537 12.671 16.7208C11.9605 15.2879 11.6053 13.8491 11.6053 12.4043C11.6053 12.2741 11.6112 12.1379 11.623 11.9958C11.6349 11.8537 11.6526 11.7234 11.6763 11.605H15.4421L16.1526 14.9622L14.0743 17.0583C14.7375 18.1596 15.4806 19.1188 16.3036 19.9359C17.1266 20.753 18.0592 21.4458 19.1013 22.0142L21.1796 19.8648L24.3947 20.5754V24.3412C24.2763 24.353 24.146 24.3648 24.0039 24.3767C23.8618 24.3885 23.7256 24.3945 23.5954 24.3945Z" fill="white"/>
</svg>
